<?xml version="1.0" standalone="no"?><svg xmlns="http://www.w3.org/2000/svg" viewBox="0 0 1440 320"><path fill="#bee1fb" fill-opacity="1" d="M0,224L30,197.3C60,171,120,117,180,117.3C240,117,300,171,360,176C420,181,480,139,540,138.7C600,139,660,181,720,213.3C780,245,840,267,900,261.3C960,256,1020,224,1080,186.7C1140,149,1200,107,1260,96C1320,85,1380,107,1410,117.3L1440,128L1440,320L1410,320C1380,320,1320,320,1260,320C1200,320,1140,320,1080,320C1020,320,960,320,900,320C840,320,780,320,720,320C660,320,600,320,540,320C480,320,420,320,360,320C300,320,240,320,180,320C120,320,60,320,30,320L0,320Z"></path></svg>